<svg width="0" height="0">
    <symbol id="settings" viewBox="0 0 24 24" fill="none" xmlns="http://www.w3.org/2000/svg">
        <path d="M19 3V7M19 21V11M12 3V15M12 21V19M5 3V5M5 21V9" stroke="currentColor" stroke-width="2" stroke-linecap="round"/>
        <path d="M17 9C17 10.1046 17.8954 11 19 11C20.1046 11 21 10.1046 21 9C21 7.89543 20.1046 7 19 7C17.8954 7 17 7.89543 17 9Z" stroke="currentColor" stroke-width="2" stroke-linecap="round"/>
        <path d="M10 17C10 18.1046 10.8954 19 12 19C13.1046 19 14 18.1046 14 17C14 15.8954 13.1046 15 12 15C10.8954 15 10 15.8954 10 17Z" stroke="currentColor" stroke-width="2" stroke-linecap="round"/>
        <path d="M3 7C3 8.10457 3.89543 9 5 9C6.10457 9 7 8.10457 7 7C7 5.89543 6.10457 5 5 5C3.89543 5 3 5.89543 3 7Z" stroke="currentColor" stroke-width="2" stroke-linecap="round"/>
    </symbol>
    <symbol id="statistic" viewBox="0 0 24 24" fill="none" xmlns="http://www.w3.org/2000/svg">
        <path d="M8 22C8.55 22 9 21.55 9 21V7C9 6.45 8.55 6 8 6C7.45 6 7 6.45 7 7V21C7 21.55 7.45 22 8 22ZM12 22C12.55 22 13 21.55 13 21V3C13 2.45 12.55 2 12 2C11.45 2 11 2.45 11 3V21C11 21.55 11.45 22 12 22ZM4 22C4.55 22 5 21.55 5 21V11C5 10.45 4.55 10 4 10C3.45 10 3 10.45 3 11V21C3 21.55 3.45 22 4 22ZM16 22C16.55 22 17 21.55 17 21V7C17 6.45 16.55 6 16 6C15.45 6 15 6.45 15 7V21C15 21.55 15.45 22 16 22ZM19 5V21C19 21.55 19.45 22 20 22C20.55 22 21 21.55 21 21V5C21 4.45 20.55 4 20 4C19.45 4 19 4.45 19 5Z" fill="currentColor"/>
    </symbol>
    <symbol id="help" viewBox="0 0 24 24" fill="none" xmlns="http://www.w3.org/2000/svg">
        <path d="M11.9999 6C10.957 6.00132 9.9571 6.41622 9.21962 7.1537C8.48214 7.89118 8.06724 8.89104 8.06592 9.934H10.0659C10.0659 8.867 10.9339 8 11.9999 8C13.0659 8 13.9339 8.867 13.9339 9.934C13.9339 10.532 13.4529 10.966 12.7179 11.56C12.4778 11.7481 12.2472 11.948 12.0269 12.159C11.0289 13.156 10.9999 14.215 10.9999 14.333V15H12.9999L12.9989 14.367C12.9999 14.351 13.0319 13.981 13.4399 13.574C13.5899 13.424 13.7789 13.274 13.9749 13.116C14.7539 12.485 15.9329 11.532 15.9329 9.934C15.9321 8.89106 15.5175 7.89104 14.7802 7.15347C14.0428 6.41591 13.0429 6.00106 11.9999 6ZM10.9999 16H12.9999V18H10.9999V16Z" fill="currentColor"/>
        <path d="M12 2C6.486 2 2 6.486 2 12C2 17.514 6.486 22 12 22C17.514 22 22 17.514 22 12C22 6.486 17.514 2 12 2ZM12 20C7.589 20 4 16.411 4 12C4 7.589 7.589 4 12 4C16.411 4 20 7.589 20 12C20 16.411 16.411 20 12 20Z" fill="currentColor"/>
    </symbol>
    <symbol id="delete" viewBox="0 0 24 24" fill="none" xmlns="http://www.w3.org/2000/svg">
        <path d="M9.82797 5H20C20.5304 5 21.0391 5.21071 21.4142 5.58579C21.7893 5.96086 22 6.46957 22 7V17C22 17.5304 21.7893 18.0391 21.4142 18.4142C21.0391 18.7893 20.5304 19 20 19H9.82797C9.29758 18.9999 8.78896 18.7891 8.41397 18.414L2.70697 12.707C2.5195 12.5195 2.41418 12.2652 2.41418 12C2.41418 11.7348 2.5195 11.4805 2.70697 11.293L8.41397 5.586C8.78896 5.2109 9.29758 5.00011 9.82797 5V5ZM9.82797 17H20V7H9.82797L4.82797 12L9.82797 17ZM16.414 12L17.828 13.414C18.0101 13.6026 18.1109 13.8552 18.1086 14.1174C18.1064 14.3796 18.0012 14.6304 17.8158 14.8158C17.6304 15.0012 17.3796 15.1064 17.1174 15.1087C16.8552 15.111 16.6026 15.0102 16.414 14.828L15 13.414L13.586 14.828C13.4937 14.9235 13.3834 14.9997 13.2614 15.0521C13.1394 15.1045 13.0082 15.1321 12.8754 15.1333C12.7426 15.1344 12.6109 15.1091 12.488 15.0588C12.3651 15.0085 12.2535 14.9343 12.1596 14.8404C12.0657 14.7465 11.9914 14.6349 11.9411 14.512C11.8909 14.3891 11.8656 14.2574 11.8667 14.1246C11.8679 13.9918 11.8955 13.8606 11.9479 13.7386C12.0003 13.6166 12.0765 13.5062 12.172 13.414L13.586 12L12.172 10.586C12.0765 10.4938 12.0003 10.3834 11.9479 10.2614C11.8955 10.1394 11.8679 10.0082 11.8667 9.8754C11.8656 9.74262 11.8909 9.61094 11.9411 9.48805C11.9914 9.36515 12.0657 9.2535 12.1596 9.15961C12.2535 9.06571 12.3651 8.99146 12.488 8.94118C12.6109 8.8909 12.7426 8.8656 12.8754 8.86675C13.0082 8.8679 13.1394 8.89549 13.2614 8.9479C13.3834 9.00031 13.4937 9.07649 13.586 9.172L15 10.586L16.414 9.172C16.5062 9.07649 16.6166 9.00031 16.7386 8.9479C16.8606 8.89549 16.9918 8.8679 17.1246 8.86675C17.2573 8.8656 17.389 8.8909 17.5119 8.94118C17.6348 8.99146 17.7465 9.06571 17.8404 9.15961C17.9343 9.2535 18.0085 9.36515 18.0588 9.48805C18.1091 9.61094 18.1344 9.74262 18.1332 9.8754C18.1321 10.0082 18.1045 10.1394 18.0521 10.2614C17.9997 10.3834 17.9235 10.4938 17.828 10.586L16.414 12V12Z" fill="currentColor"/>
    </symbol>
    <symbol id="enter" viewBox="0 0 24 24" fill="none" xmlns="http://www.w3.org/2000/svg">
        <path d="M4.99998 6C5.2652 6 5.51955 6.10536 5.70709 6.29289C5.89463 6.48043 5.99998 6.73478 5.99998 7V11C5.99998 11.2652 6.10534 11.5196 6.29287 11.7071C6.48041 11.8946 6.73477 12 6.99998 12H16.59L15.29 10.71C15.1017 10.5217 14.9959 10.2663 14.9959 10C14.9959 9.7337 15.1017 9.4783 15.29 9.29C15.4783 9.1017 15.7337 8.99591 16 8.99591C16.2663 8.99591 16.5217 9.1017 16.71 9.29L19.71 12.29C19.801 12.3851 19.8724 12.4972 19.92 12.62C20.02 12.8635 20.02 13.1365 19.92 13.38C19.8724 13.5028 19.801 13.6149 19.71 13.71L16.71 16.71C16.617 16.8037 16.5064 16.8781 16.3846 16.9289C16.2627 16.9797 16.132 17.0058 16 17.0058C15.868 17.0058 15.7373 16.9797 15.6154 16.9289C15.4935 16.8781 15.3829 16.8037 15.29 16.71C15.1963 16.617 15.1219 16.5064 15.0711 16.3846C15.0203 16.2627 14.9942 16.132 14.9942 16C14.9942 15.868 15.0203 15.7373 15.0711 15.6154C15.1219 15.4936 15.1963 15.383 15.29 15.29L16.59 14H6.99998C6.20433 14 5.44127 13.6839 4.87866 13.1213C4.31605 12.5587 3.99998 11.7956 3.99998 11V7C3.99998 6.73478 4.10534 6.48043 4.29287 6.29289C4.48041 6.10536 4.73477 6 4.99998 6Z" fill="currentColor"/>
    </symbol>
    <symbol id="close" viewBox="0 0 24 24" fill="none" xmlns="http://www.w3.org/2000/svg">
        <path d="M4.57504 4.57498C4.85634 4.29378 5.2378 4.1358 5.63554 4.1358C6.03329 4.1358 6.41475 4.29378 6.69604 4.57498L12 9.87898L17.304 4.57498C17.5869 4.30175 17.9658 4.15055 18.3591 4.15397C18.7524 4.15739 19.1287 4.31514 19.4068 4.59326C19.6849 4.87137 19.8426 5.24759 19.8461 5.64088C19.8495 6.03418 19.6983 6.41308 19.425 6.69598L14.121 12L19.425 17.304C19.6983 17.5869 19.8495 17.9658 19.8461 18.3591C19.8426 18.7524 19.6849 19.1286 19.4068 19.4067C19.1287 19.6848 18.7524 19.8426 18.3591 19.846C17.9658 19.8494 17.5869 19.6982 17.304 19.425L12 14.121L6.69604 19.425C6.41314 19.6982 6.03424 19.8494 5.64094 19.846C5.24765 19.8426 4.87143 19.6848 4.59332 19.4067C4.3152 19.1286 4.15745 18.7524 4.15403 18.3591C4.15062 17.9658 4.30181 17.5869 4.57504 17.304L9.87904 12L4.57504 6.69598C4.29384 6.41469 4.13586 6.03323 4.13586 5.63548C4.13586 5.23774 4.29384 4.85627 4.57504 4.57498V4.57498Z" fill="currentColor"/>
    </symbol>
    <symbol id="theme" viewBox="0 0 24 24" fill="none" xmlns="http://www.w3.org/2000/svg">
        <path d="M12 22C17.523 22 22 17.523 22 12C22 6.477 17.523 2 12 2C6.477 2 2 6.477 2 12C2 17.523 6.477 22 12 22ZM12 20.5V3.5C14.2543 3.5 16.4163 4.39553 18.0104 5.98959C19.6045 7.58365 20.5 9.74566 20.5 12C20.5 14.2543 19.6045 16.4163 18.0104 18.0104C16.4163 19.6045 14.2543 20.5 12 20.5V20.5Z" fill="currentColor"/>
    </symbol>
    <symbol id="arrow" viewBox="0 0 200 200" fill="none" xmlns="http://www.w3.org/2000/svg">
        <path d="M99.9998 125L133.333 91.6667H66.6665L99.9998 125ZM99.9998 183.333C88.4721 183.333 77.6387 181.144 67.4998 176.767C57.3609 172.394 48.5415 166.458 41.0415 158.958C33.5415 151.458 27.6054 142.639 23.2332 132.5C18.8554 122.361 16.6665 111.528 16.6665 100C16.6665 88.4722 18.8554 77.6389 23.2332 67.5C27.6054 57.3611 33.5415 48.5417 41.0415 41.0417C48.5415 33.5417 57.3609 27.6028 67.4998 23.225C77.6387 18.8528 88.4721 16.6667 99.9998 16.6667C111.528 16.6667 122.361 18.8528 132.5 23.225C142.639 27.6028 151.458 33.5417 158.958 41.0417C166.458 48.5417 172.394 57.3611 176.766 67.5C181.144 77.6389 183.333 88.4722 183.333 100C183.333 111.528 181.144 122.361 176.766 132.5C172.394 142.639 166.458 151.458 158.958 158.958C151.458 166.458 142.639 172.394 132.5 176.767C122.361 181.144 111.528 183.333 99.9998 183.333ZM99.9998 166.667C118.611 166.667 134.375 160.208 147.291 147.292C160.208 134.375 166.666 118.611 166.666 100C166.666 81.3889 160.208 65.625 147.291 52.7084C134.375 39.7917 118.611 33.3334 99.9998 33.3334C81.3887 33.3334 65.6248 39.7917 52.7082 52.7084C39.7915 65.625 33.3332 81.3889 33.3332 100C33.3332 118.611 39.7915 134.375 52.7082 147.292C65.6248 160.208 81.3887 166.667 99.9998 166.667Z" fill="currentColor"/>
    </symbol>
    <symbol id="callme" viewBox="0 0 200 200" fill="none" xmlns="http://www.w3.org/2000/svg">
        <path d="M9.93899 88.0889C18.1501 73.4778 30.8945 61.1611 43.889 55.2167C64.2057 45.9222 72.6057 13.0945 78.3945 4.9389C86.4334 -6.37777 102.689 4.02223 100 20.8556C97.1001 38.9945 89.2057 43.3722 84.4223 54.3056C81.989 59.8833 82.7723 63.8222 93.0668 64.5667C103.367 65.3111 131.933 68.0889 133.339 73.7167C136.761 87.4056 90.0779 120.633 127.906 148.906C127.906 148.906 176.022 158.078 185.733 159.506C202.545 161.978 199.517 184.678 181.983 182.817C165.472 181.072 125.095 172.672 112.667 180.394C102.689 186.594 65.4723 194.889 32.4168 176.317C-0.63323 157.75 -6.88879 118.033 9.93899 88.0889V88.0889Z" fill="#FFDC5D"/>
        <path d="M78.3278 143.883C55.2389 139.078 57.8333 111.183 79.8278 112.944C97.7166 114.372 128.972 119.806 136.783 121.572C152.767 125.178 149.217 153.011 130.344 150.733C118.089 149.256 96.2944 147.622 78.3278 143.883V143.883Z" fill="#EF9645"/>
        <path d="M80.6723 138.756C61.5112 134.339 66.839 114.15 84.7501 115.178C102.667 116.206 129.967 120.35 137.878 121.617C156.356 124.583 148.039 148.317 134.428 146.389C120.817 144.461 94.9612 142.044 80.6723 138.756V138.756Z" fill="#FFDC5D"/>
        <path d="M73.2887 122.244C45.8276 121.861 47.322 91.2389 67.8776 88.8389C85.6998 86.7555 124.989 91.1666 133 91.4944C147.905 92.1111 148.011 119.356 131.083 120.25C117.35 120.967 87.9554 122.45 73.2887 122.244V122.244Z" fill="#EF9645"/>
        <path d="M72.4779 117.033C55.4002 117.817 53.4668 94.7333 71.3279 93.0611C89.189 91.3833 127.378 91.7833 135.383 91.9167C149.317 92.1444 148.822 115.439 131.711 116.094C117.978 116.617 87.1279 116.367 72.4779 117.033V117.033Z" fill="#FFDC5D"/>
        <path d="M70.989 98.5334C46.2835 101.411 45.6001 69.9389 63.439 68.0278C88.6335 65.3334 100.089 69.3611 101.889 68.9445C117.217 65.3889 130.589 65.8389 133.339 73.7167C135.689 80.45 131.222 91.5167 122.383 92.6667C108.756 94.4445 85.5557 96.8334 70.989 98.5334V98.5334Z" fill="#EF9645"/>
        <path d="M71.9943 93.6555C54.9554 95.0333 50.6332 73.5944 68.1999 69.9555C85.7721 66.3111 110.917 64.3444 121.117 63.8944C136.733 63.2 139.494 85.9278 122.561 88.4667C108.967 90.5111 89.3277 92.25 71.9943 93.6555V93.6555Z" fill="#FFDC5D"/>
    </symbol>
    <symbol id="party" viewBox="0 0 200 200" fill="none" xmlns="http://www.w3.org/2000/svg">
        <g clip-path="url(#clip0_236_193)">
            <path d="M64.589 41.6C63.9718 42.2418 63.4683 42.9838 63.1001 43.7944L63.0556 43.75L0.744533 184.117L0.805644 184.178C-0.349911 186.417 1.58342 190.972 5.54453 194.939C9.50564 198.9 14.0612 200.833 16.3001 199.678L16.3556 199.733L156.722 137.417L156.678 137.367C157.495 136.978 158.245 136.506 158.872 135.872C167.55 127.194 153.478 99.0555 127.45 73.0222C101.411 46.9889 73.2723 32.9222 64.589 41.6V41.6Z" fill="#DD2E44"/>
            <path d="M72.2223 66.6667L2.3112 180.589L0.744533 184.117L0.805644 184.178C-0.349911 186.417 1.58342 190.972 5.54453 194.939C6.83342 196.228 8.17231 197.206 9.48342 198.033L94.4445 94.4445L72.2223 66.6667Z" fill="#EA596E"/>
            <path d="M127.844 72.5889C153.789 98.5445 168.194 126.211 160.006 134.389C151.822 142.578 124.156 128.178 98.1945 102.233C72.2445 76.2778 57.8445 48.6 66.0278 40.4167C74.2167 32.2333 101.883 46.6333 127.844 72.5889V72.5889Z" fill="#A0041E"/>
            <path d="M103.278 75.6056C102.711 76.0651 102.059 76.4074 101.359 76.6125C100.659 76.8176 99.9252 76.8813 99.2002 76.8C94.378 76.2778 90.3225 74.6 87.4836 71.95C84.478 69.1445 82.9947 65.3778 83.4002 61.6056C84.1114 54.9834 90.7558 48.9056 102.084 50.1278C106.489 50.6 108.456 49.1834 108.522 48.5056C108.6 47.8334 106.984 46.0278 102.578 45.55C97.7558 45.0278 93.7002 43.35 90.8558 40.7C87.8502 37.8945 86.3614 34.1278 86.7725 30.3556C87.4947 23.7334 94.1336 17.6556 105.45 18.8834C108.661 19.2278 110.356 18.5667 111.072 18.1389C111.645 17.7889 111.872 17.4556 111.895 17.2611C111.961 16.5889 110.367 14.7834 105.95 14.3056C105.225 14.2281 104.521 14.0081 103.881 13.6582C103.24 13.3083 102.675 12.8354 102.218 12.2666C101.761 11.6978 101.42 11.0443 101.216 10.3436C101.012 9.64289 100.948 8.90878 101.028 8.18336C101.105 7.45788 101.324 6.75472 101.674 6.11427C102.023 5.47381 102.495 4.90867 103.064 4.4513C103.632 3.99394 104.285 3.65335 104.985 3.4491C105.686 3.24486 106.42 3.18098 107.145 3.26113C118.461 4.4778 123.661 11.8278 122.945 18.4556C122.222 25.0889 115.584 31.1556 104.256 29.9389C101.045 29.5889 99.3669 30.2556 98.6447 30.6834C98.0725 31.0278 97.8391 31.3667 97.8169 31.5556C97.7447 32.2334 99.3502 34.0334 103.767 34.5111C115.084 35.7334 120.284 43.0778 119.567 49.7056C118.85 56.3278 112.211 62.4056 100.889 61.1778C97.678 60.8334 95.9891 61.5 95.2669 61.9222C94.6891 62.2778 94.4669 62.6111 94.4447 62.8C94.3725 63.4722 95.978 65.2778 100.389 65.7556C101.481 65.8735 102.514 66.3126 103.357 67.0175C104.2 67.7223 104.815 68.6613 105.124 69.7155C105.433 70.7698 105.423 71.8921 105.094 72.9405C104.766 73.9889 104.134 74.9164 103.278 75.6056V75.6056Z" fill="#AA8DD8"/>
            <path d="M170.339 126.983C181.3 123.889 188.861 128.778 190.661 135.194C192.461 141.606 188.561 149.722 177.606 152.806C173.328 154.006 172.045 156.05 172.217 156.7C172.406 157.356 174.578 158.433 178.845 157.228C189.8 154.144 197.361 159.033 199.161 165.444C200.972 171.861 197.061 179.967 186.1 183.056C181.828 184.256 180.539 186.306 180.728 186.956C180.911 187.606 183.078 188.683 187.35 187.483C188.059 187.264 188.804 187.189 189.543 187.263C190.281 187.337 190.997 187.557 191.648 187.912C192.3 188.267 192.874 188.749 193.336 189.329C193.798 189.909 194.14 190.576 194.34 191.29C194.54 192.005 194.596 192.752 194.503 193.488C194.41 194.224 194.17 194.934 193.798 195.576C193.426 196.218 192.93 196.779 192.337 197.226C191.745 197.673 191.069 197.996 190.35 198.178C179.4 201.261 171.833 196.383 170.022 189.961C168.222 183.55 172.128 175.444 183.095 172.356C187.372 171.15 188.656 169.111 188.467 168.456C188.289 167.806 186.122 166.722 181.856 167.922C170.889 171.011 163.333 166.133 161.528 159.706C159.722 153.294 163.628 145.189 174.589 142.094C178.856 140.9 180.139 138.844 179.961 138.2C179.772 137.544 177.611 136.467 173.339 137.667C172.625 137.907 171.869 138 171.118 137.939C170.367 137.879 169.636 137.666 168.97 137.314C168.304 136.962 167.716 136.478 167.243 135.892C166.77 135.306 166.42 134.629 166.217 133.904C166.013 133.178 165.959 132.419 166.058 131.672C166.157 130.925 166.407 130.206 166.792 129.559C167.178 128.911 167.691 128.349 168.301 127.906C168.911 127.464 169.604 127.15 170.339 126.983V126.983Z" fill="#77B255"/>
            <path d="M127.783 112C126.633 111.998 125.511 111.64 124.573 110.974C123.635 110.309 122.926 109.368 122.545 108.283C122.163 107.198 122.128 106.021 122.443 104.914C122.758 103.808 123.409 102.827 124.306 102.106C125.517 101.133 154.406 78.4444 195.233 84.2833C195.972 84.3668 196.686 84.5977 197.334 84.9623C197.982 85.3269 198.55 85.8178 199.005 86.4059C199.459 86.994 199.791 87.6674 199.981 88.3861C200.171 89.1048 200.214 89.8543 200.109 90.5902C200.004 91.326 199.752 92.0333 199.368 92.67C198.985 93.3068 198.477 93.8601 197.876 94.2972C197.275 94.7343 196.592 95.0464 195.868 95.2148C195.144 95.3832 194.394 95.4046 193.661 95.2778C157.589 90.1555 131.511 110.578 131.256 110.783C130.27 111.572 129.046 112.001 127.783 112V112Z" fill="#AA8DD8"/>
            <path d="M31.9665 88.8889C31.1005 88.889 30.2466 88.6866 29.4727 88.298C28.6989 87.9093 28.0267 87.3452 27.5096 86.6506C26.9926 85.956 26.645 85.1501 26.4948 84.2973C26.3445 83.4445 26.3957 82.5684 26.6442 81.7389C32.9387 60.7778 38.6442 27.3278 31.6331 18.6056C30.8498 17.6167 29.6665 16.6445 26.9553 16.85C21.7442 17.25 22.2387 28.2445 22.2442 28.3556C22.3148 29.0916 22.2377 29.8343 22.0176 30.5401C21.7974 31.2459 21.4385 31.9007 20.962 32.4661C20.4855 33.0314 19.901 33.496 19.2426 33.8325C18.5843 34.1691 17.8653 34.3708 17.128 34.4259C16.3907 34.481 15.6498 34.3883 14.9487 34.1534C14.2477 33.9184 13.6005 33.5459 13.0453 33.0577C12.4901 32.5694 12.0379 31.9752 11.7153 31.3099C11.3926 30.6447 11.2061 29.9217 11.1665 29.1833C10.5942 21.5222 12.9776 6.76668 26.122 5.77224C31.9887 5.32779 36.8609 7.36668 40.2998 11.6445C53.472 28.0389 40.0998 75.5667 37.2887 84.9333C36.9447 86.0772 36.2411 87.0798 35.2824 87.7923C34.3237 88.5048 33.1609 88.8893 31.9665 88.8889Z" fill="#77B255"/>
            <path d="M141.667 61.1111C146.269 61.1111 150 57.3802 150 52.7778C150 48.1754 146.269 44.4445 141.667 44.4445C137.064 44.4445 133.333 48.1754 133.333 52.7778C133.333 57.3802 137.064 61.1111 141.667 61.1111Z" fill="#5C913B"/>
            <path d="M11.1111 111.111C17.2476 111.111 22.2222 106.137 22.2222 100C22.2222 93.8635 17.2476 88.8889 11.1111 88.8889C4.97461 88.8889 0 93.8635 0 100C0 106.137 4.97461 111.111 11.1111 111.111Z" fill="#9266CC"/>
            <path d="M180.556 116.667C185.158 116.667 188.889 112.936 188.889 108.333C188.889 103.731 185.158 100 180.556 100C175.953 100 172.222 103.731 172.222 108.333C172.222 112.936 175.953 116.667 180.556 116.667Z" fill="#5C913B"/>
            <path d="M130.556 183.333C135.158 183.333 138.889 179.602 138.889 175C138.889 170.398 135.158 166.667 130.556 166.667C125.953 166.667 122.222 170.398 122.222 175C122.222 179.602 125.953 183.333 130.556 183.333Z" fill="#5C913B"/>
            <path d="M155.555 33.3333C161.692 33.3333 166.667 28.3587 166.667 22.2222C166.667 16.0857 161.692 11.1111 155.555 11.1111C149.419 11.1111 144.444 16.0857 144.444 22.2222C144.444 28.3587 149.419 33.3333 155.555 33.3333Z" fill="#FFCC4D"/>
            <path d="M180.556 55.5556C185.158 55.5556 188.889 51.8246 188.889 47.2222C188.889 42.6199 185.158 38.8889 180.556 38.8889C175.953 38.8889 172.222 42.6199 172.222 47.2222C172.222 51.8246 175.953 55.5556 180.556 55.5556Z" fill="#FFCC4D"/>
            <path d="M163.889 77.7778C168.491 77.7778 172.222 74.0468 172.222 69.4444C172.222 64.842 168.491 61.1111 163.889 61.1111C159.287 61.1111 155.556 64.842 155.556 69.4444C155.556 74.0468 159.287 77.7778 163.889 77.7778Z" fill="#FFCC4D"/>
            <path d="M41.6668 138.889C46.2692 138.889 50.0002 135.158 50.0002 130.556C50.0002 125.953 46.2692 122.222 41.6668 122.222C37.0645 122.222 33.3335 125.953 33.3335 130.556C33.3335 135.158 37.0645 138.889 41.6668 138.889Z" fill="#FFCC4D"/>
        </g>
        <defs>
            <clipPath id="clip0_236_193">
                <rect width="200" height="200" fill="white"/>
            </clipPath>
        </defs>
    </symbol>
    <symbol id="clap" viewBox="0 0 200 200" fill="none" xmlns="http://www.w3.org/2000/svg">
        <g clip-path="url(#clip0_236_182)">
            <path d="M179.456 135.261C175.595 129.65 177.75 121.539 176.789 112.583C175.8 97.9722 169.522 83.8167 157.345 72.4945L115.867 33.9278C115.867 33.9278 107.695 26.3222 100.084 34.5C92.4835 42.6722 100.661 50.2778 100.661 50.2778L118.184 66.5778L133.372 80.7C133.372 80.7 129.567 84.7889 112.756 69.1556L55.978 16.3445C55.978 16.3445 47.7946 8.74447 40.1891 16.9222C32.5891 25.0945 40.7613 32.7 40.7613 32.7L94.4502 82.6389C94.3335 82.5278 90.3891 86.4834 90.3169 86.4167L32.8724 32.9889C32.8724 32.9889 24.6946 25.3834 17.0891 33.5611C9.48353 41.7389 17.6613 49.3389 17.6613 49.3389L75.1113 102.778C75.178 102.844 71.478 107.022 71.5891 107.128L22.0335 61.0278C22.0335 61.0278 13.8558 53.4222 6.2502 61.6C-1.35536 69.7778 6.82242 77.3834 6.82242 77.3834L59.5113 126.383C59.9946 126.833 56.7335 131.428 57.3391 131.989L19.3724 96.6778C19.3724 96.6778 11.1946 89.0722 3.58909 97.2556C-4.01647 105.433 4.16131 113.039 4.16131 113.039L66.0891 170.611C76.428 180.228 87.0446 185.094 99.8446 186.878C102.45 187.239 105.784 187.239 107.15 187.411C111.467 187.956 115.256 189.489 120.328 192.6C126.856 196.6 136.65 198.267 142.278 192.25L161.467 171.722L179.184 152.767C184.806 146.756 183.8 141.567 179.456 135.261V135.261Z" fill="#EF9645"/>
            <path d="M10.8667 194.589C9.76695 194.591 8.69122 194.267 7.7761 193.657C6.86098 193.047 6.14773 192.179 5.72689 191.163C5.30604 190.147 5.19658 189.028 5.41238 187.95C5.62818 186.871 6.15953 185.881 6.93897 185.106L26.6667 165.389C27.1826 164.873 27.7949 164.464 28.4688 164.185C29.1428 163.906 29.8651 163.762 30.5945 163.762C31.324 163.762 32.0463 163.906 32.7202 164.185C33.3942 164.464 34.0065 164.873 34.5223 165.389C35.0381 165.905 35.4473 166.517 35.7264 167.191C36.0056 167.865 36.1492 168.587 36.1492 169.317C36.1492 170.046 36.0056 170.768 35.7264 171.442C35.4473 172.116 35.0381 172.729 34.5223 173.244L14.7945 192.967C14.279 193.483 13.6666 193.891 12.9926 194.17C12.3185 194.448 11.596 194.591 10.8667 194.589V194.589ZM48.3445 199.711C47.457 199.712 46.582 199.501 45.7932 199.094C45.0043 198.687 44.3245 198.097 43.8107 197.373C43.297 196.65 42.9644 195.813 42.8407 194.934C42.7171 194.055 42.806 193.16 43.1001 192.322L48.4945 176.917C48.7188 176.208 49.0831 175.551 49.5659 174.985C50.0487 174.42 50.6401 173.957 51.3052 173.624C51.9702 173.291 52.6953 173.095 53.4374 173.048C54.1796 173 54.9237 173.102 55.6256 173.348C56.3276 173.593 56.9731 173.977 57.5239 174.477C58.0747 174.977 58.5196 175.582 58.8323 176.257C59.1449 176.931 59.3189 177.662 59.3439 178.405C59.3689 179.148 59.2444 179.889 58.9779 180.583L53.5834 195.989C53.2035 197.076 52.4953 198.018 51.5568 198.684C50.6183 199.351 49.4958 199.71 48.3445 199.711V199.711ZM5.75008 157.117C4.44337 157.109 3.18094 156.642 2.18428 155.797C1.18762 154.952 0.520389 153.783 0.299654 152.495C0.078919 151.207 0.318779 149.883 0.97715 148.754C1.63552 147.625 2.67035 146.764 3.90008 146.322L17.7612 141.428C18.4492 141.185 19.1783 141.08 19.9068 141.119C20.6354 141.157 21.3492 141.339 22.0075 141.654C22.6658 141.969 23.2556 142.41 23.7433 142.953C24.2311 143.495 24.6071 144.129 24.8501 144.817C25.093 145.505 25.1981 146.234 25.1593 146.962C25.1204 147.691 24.9385 148.405 24.6238 149.063C24.3091 149.721 23.8678 150.311 23.3252 150.799C22.7826 151.287 22.1492 151.663 21.4612 151.906L7.60008 156.8C7.00581 157.01 6.38023 157.117 5.75008 157.117V157.117ZM169.417 36.1889C168.317 36.1897 167.242 35.8642 166.327 35.2534C165.413 34.6427 164.7 33.7743 164.279 32.7581C163.859 31.742 163.749 30.6238 163.964 29.5454C164.18 28.4669 164.71 27.4766 165.489 26.7L185.222 6.97776C186.265 5.93605 187.678 5.35112 189.152 5.35164C190.626 5.35216 192.039 5.93809 193.081 6.98054C194.122 8.02299 194.707 9.43656 194.707 10.9103C194.706 12.384 194.12 13.7972 193.078 14.8389L173.345 34.5611C172.83 35.0787 172.218 35.4892 171.544 35.7686C170.87 36.048 170.147 36.1908 169.417 36.1889V36.1889ZM146.283 26.7611C145.396 26.7614 144.521 26.549 143.732 26.1416C142.943 25.7342 142.263 25.1436 141.75 24.4195C141.236 23.6953 140.904 22.8586 140.78 21.9795C140.656 21.1004 140.745 20.2044 141.039 19.3667L146.428 3.96109C146.914 2.57018 147.933 1.42939 149.26 0.789684C150.588 0.149976 152.115 0.0637536 153.506 0.549984C154.897 1.03621 156.037 2.05507 156.677 3.38241C157.317 4.70975 157.403 6.23685 156.917 7.62776L151.528 23.0333C151.149 24.122 150.44 25.0658 149.5 25.7337C148.561 26.4017 147.436 26.7607 146.283 26.7611V26.7611ZM180.411 58.8389C179.104 58.8316 177.842 58.3645 176.845 57.5194C175.849 56.6743 175.182 55.5052 174.961 54.2172C174.74 52.9293 174.98 51.6047 175.638 50.476C176.297 49.3472 177.331 48.4864 178.561 48.0444L192.417 43.15C193.806 42.6593 195.334 42.7407 196.663 43.3763C197.992 44.0118 199.015 45.1494 199.506 46.5389C199.996 47.9283 199.915 49.4558 199.279 50.7852C198.644 52.1146 197.506 53.1371 196.117 53.6278L182.261 58.5222C181.667 58.7318 181.041 58.8389 180.411 58.8389V58.8389Z" fill="#FA743E"/>
            <path d="M196.611 132.344C192.939 126.611 195.367 118.572 194.711 109.589C194.211 94.9556 188.417 80.5945 176.628 68.8667L136.472 28.9278C136.472 28.9278 128.561 21.0556 120.678 28.9722C112.806 36.8833 120.722 44.7611 120.722 44.7611L137.689 61.6445L152.389 76.2667C152.389 76.2667 148.444 80.2222 132.172 64.0333C115.889 47.8389 77.2056 9.3389 77.2056 9.3389C77.2056 9.3389 69.2889 1.46668 61.4111 9.38335C53.5333 17.2945 61.45 25.1667 61.45 25.1667L113.428 76.8889C113.317 76.7778 109.239 80.5945 109.167 80.5222L53.5556 25.1889C53.5556 25.1889 45.6389 17.3111 37.7611 25.2278C29.8889 33.1445 37.8 41.0167 37.8 41.0167L93.4167 96.3611C93.4833 96.4278 89.6389 100.478 89.75 100.589L41.7778 52.85C41.7778 52.85 33.8611 44.9778 25.9833 52.8945C18.1056 60.8111 26.0222 68.6889 26.0222 68.6889L77.0278 119.439C77.4944 119.9 74.0833 124.389 74.6667 124.972L37.9111 88.4C37.9111 88.4 29.9944 80.5278 22.1167 88.4445C14.2389 96.3611 22.1556 104.239 22.1556 104.239L82.1 163.861C92.1111 173.822 102.556 179.039 115.289 181.256C117.883 181.706 121.217 181.817 122.572 182.033C126.867 182.722 130.6 184.383 135.572 187.667C141.961 191.883 151.694 193.878 157.522 188.056L177.394 168.189L195.739 149.844C201.567 144.011 200.739 138.789 196.611 132.344V132.344Z" fill="#FFDB5E"/>
        </g>
        <defs>
            <clipPath id="clip0_236_182">
                <rect width="200" height="200" fill="white"/>
            </clipPath>
        </defs>
    </symbol>
    <symbol id="crying" viewBox="0 0 200 200" fill="none" xmlns="http://www.w3.org/2000/svg">
        <g clip-path="url(#clip0_236_186)">
            <path d="M200 100C200 155.228 155.228 200 100 200C44.7722 200 0 155.228 0 100C0 44.7722 44.7722 0 100 0C155.228 0 200 44.7722 200 100Z" fill="#FFCC4D"/>
            <path d="M122.222 150C122.222 165.35 112.272 166.667 99.9998 166.667C87.722 166.667 77.7776 165.35 77.7776 150C77.7776 134.661 87.722 116.667 99.9998 116.667C112.272 116.667 122.222 134.661 122.222 150ZM166.666 83.3333C165.96 83.334 165.26 83.1982 164.605 82.9333C135.555 71.3167 123.65 53.8166 123.155 53.0778C122.335 51.8533 122.035 50.3533 122.321 48.9078C122.607 47.4622 123.456 46.1894 124.68 45.3694C125.905 44.5495 127.405 44.2495 128.85 44.5355C130.296 44.8215 131.569 45.67 132.389 46.8944C132.494 47.0444 143.111 62.3666 168.728 72.6111C169.932 73.087 170.932 73.9685 171.555 75.1033C172.178 76.2382 172.386 77.5551 172.141 78.8265C171.897 80.098 171.216 81.2442 170.216 82.067C169.217 82.8899 167.961 83.3378 166.666 83.3333V83.3333ZM33.3331 83.3333C32.0441 83.3291 30.7965 82.8773 29.8037 82.055C28.811 81.2327 28.1348 80.091 27.8907 78.8253C27.6466 77.5595 27.8498 76.2483 28.4655 75.1158C29.0813 73.9833 30.0714 73.0999 31.2665 72.6166C56.8887 62.3722 67.5054 47.05 67.6109 46.9C68.4366 45.6826 69.7104 44.8415 71.1543 44.5605C72.5981 44.2794 74.0945 44.5812 75.3165 45.4C76.5368 46.2172 77.3831 47.4852 77.6696 48.9257C77.956 50.3661 77.6592 51.8614 76.8443 53.0833C76.3498 53.8222 64.4443 71.3222 35.3998 82.9389C34.7418 83.1988 34.0407 83.3327 33.3331 83.3333Z" fill="#664500"/>
            <path d="M133.333 88.8889H155.555V194.444L133.333 194.189V88.8889ZM44.4443 194.444L66.6666 194.189V88.8889H44.4443V194.444Z" fill="#5DADEC"/>
            <path d="M83.3277 100C82.4944 100 81.6444 99.8111 80.8499 99.4167C61.3388 89.6611 41.5721 99.3167 41.3777 99.4167C40.7251 99.7431 40.0146 99.9379 39.2867 99.9898C38.5589 100.042 37.8279 99.9497 37.1356 99.7191C36.4433 99.4885 35.8032 99.1238 35.2518 98.6458C34.7004 98.1678 34.2486 97.5859 33.9221 96.9333C33.5957 96.2807 33.4009 95.5702 33.349 94.8424C33.2971 94.1145 33.3891 93.3835 33.6197 92.6912C33.8503 91.9989 34.215 91.3588 34.693 90.8074C35.171 90.2561 35.7529 89.8042 36.4055 89.4778C37.4166 88.9778 61.3944 77.2722 85.8221 89.4778C86.941 90.0385 87.8377 90.9606 88.367 92.0946C88.8964 93.2287 89.0273 94.5082 88.7386 95.7259C88.4499 96.9437 87.7586 98.0283 86.7765 98.804C85.7944 99.5797 84.5792 100.001 83.3277 100ZM161.105 100C160.272 100 159.422 99.8111 158.628 99.4167C139.111 89.6611 119.35 99.3167 119.155 99.4167C118.503 99.7431 117.792 99.9379 117.065 99.9898C116.337 100.042 115.606 99.9497 114.913 99.7191C114.221 99.4885 113.581 99.1238 113.03 98.6458C112.478 98.1678 112.026 97.5859 111.7 96.9333C111.373 96.2807 111.179 95.5702 111.127 94.8424C111.075 94.1145 111.167 93.3835 111.397 92.6912C111.628 91.9989 111.993 91.3588 112.471 90.8074C112.949 90.2561 113.531 89.8042 114.183 89.4778C115.194 88.9778 139.189 77.2778 163.6 89.4778C164.719 90.0385 165.615 90.9606 166.145 92.0946C166.674 93.2287 166.805 94.5082 166.516 95.7259C166.228 96.9437 165.536 98.0283 164.554 98.804C163.572 99.5797 162.357 100.001 161.105 100V100Z" fill="#664500"/>
            <path d="M100 200C155.228 200 200 195.025 200 188.889C200 182.752 155.228 177.778 100 177.778C44.7715 177.778 0 182.752 0 188.889C0 195.025 44.7715 200 100 200Z" fill="#5DADEC"/>
            <path d="M100 161.111C109.205 161.111 116.667 156.136 116.667 150C116.667 143.863 109.205 138.889 100 138.889C90.7954 138.889 83.3335 143.863 83.3335 150C83.3335 156.136 90.7954 161.111 100 161.111Z" fill="#E75A70"/>
        </g>
        <defs>
            <clipPath id="clip0_236_186">
                <rect width="200" height="200" fill="white"/>
            </clipPath>
        </defs>
    </symbol>
    <symbol id="confused" viewBox="0 0 200 200" fill="none" xmlns="http://www.w3.org/2000/svg">
        <g clip-path="url(#clip0_236_179)">
            <path d="M200 100C200 155.228 155.228 200 100 200C44.7778 200 0 155.228 0 100C0 44.7778 44.7778 0 100 0C155.228 0 200 44.7778 200 100Z" fill="#FFCC4D"/>
            <path d="M33.3333 72.2222C32.6037 72.2237 31.881 72.0814 31.2064 71.8036C30.5318 71.5257 29.9186 71.1178 29.4017 70.6029C28.3577 69.5631 27.7696 68.1512 27.7666 66.6778C27.7637 65.2044 28.3462 63.7901 29.3859 62.7462C30.4257 61.7022 31.8376 61.1141 33.3111 61.1111C34.1777 61.1 53.1388 60.6333 67.7833 41.1111C68.6673 39.9324 69.9834 39.1531 71.442 38.9447C72.9007 38.7364 74.3823 39.116 75.5611 40C76.7398 40.8841 77.5191 42.2002 77.7274 43.6588C77.9358 45.1174 77.5562 46.5991 76.6722 47.7778C58.5444 71.9445 34.3555 72.2222 33.3333 72.2222ZM166.667 72.2222C165.644 72.2222 141.461 71.9445 123.333 47.7778C122.871 47.1965 122.53 46.5284 122.33 45.813C122.13 45.0976 122.076 44.3494 122.17 43.6126C122.265 42.8759 122.506 42.1655 122.879 41.5236C123.253 40.8817 123.752 40.3212 124.346 39.8754C124.94 39.4295 125.618 39.1073 126.338 38.9278C127.059 38.7484 127.809 38.7153 128.542 38.8305C129.276 38.9457 129.979 39.2069 130.611 39.5986C131.242 39.9904 131.788 40.5047 132.217 41.1111C146.889 60.6722 165.889 61.1056 166.694 61.1111C169.75 61.1445 172.217 63.6445 172.2 66.6945C172.198 68.161 171.615 69.567 170.577 70.6035C169.54 71.64 168.133 72.2222 166.667 72.2222ZM33.3388 122.222C32.1738 122.222 31.0383 121.855 30.093 121.174C29.1478 120.493 28.4405 119.532 28.0714 118.427C27.7022 117.322 27.6898 116.129 28.0359 115.016C28.382 113.904 29.0691 112.928 29.9999 112.228C30.7944 111.633 46.3944 100.1 68.0888 95.9333C54.3388 89.0389 39.0777 88.8889 38.8833 88.8889C37.4529 88.8242 36.1025 88.2103 35.1134 87.1749C34.1243 86.1395 33.5727 84.7626 33.5734 83.3307C33.5742 81.8988 34.1272 80.5224 35.1173 79.488C36.1074 78.4537 37.4584 77.8411 38.8888 77.7778C40.1166 77.7778 69.1777 77.9889 87.2611 96.0722C88.0378 96.8492 88.5667 97.839 88.781 98.9165C88.9952 99.994 88.8852 101.111 88.4648 102.126C88.0444 103.141 87.3325 104.008 86.4192 104.619C85.5058 105.229 84.4319 105.555 83.3333 105.556C57.7055 105.556 36.8722 120.956 36.6666 121.111C35.7072 121.833 34.5393 122.223 33.3388 122.222ZM166.661 122.217C165.464 122.218 164.298 121.832 163.339 121.117C163.128 120.956 142.167 105.556 116.667 105.556C115.567 105.558 114.491 105.234 113.576 104.624C112.661 104.014 111.948 103.145 111.527 102.129C111.106 101.113 110.996 99.995 111.212 98.9166C111.428 97.8381 111.959 96.8481 112.739 96.0722C130.828 77.9889 159.883 77.7778 161.111 77.7778C161.841 77.7771 162.563 77.92 163.237 78.1986C163.912 78.4771 164.525 78.8857 165.041 79.401C165.557 79.9164 165.967 80.5284 166.247 81.2022C166.527 81.8759 166.671 82.5982 166.672 83.3278C166.673 84.0574 166.53 84.7799 166.251 85.4542C165.973 86.1285 165.564 86.7414 165.049 87.2578C164.534 87.7742 163.922 88.184 163.248 88.4639C162.574 88.7438 161.852 88.8882 161.122 88.8889C160.922 88.8889 145.661 89.0389 131.911 95.9333C153.605 100.1 169.206 111.628 169.994 112.228C170.923 112.929 171.607 113.903 171.952 115.014C172.297 116.125 172.284 117.316 171.916 118.42C171.548 119.523 170.843 120.483 169.9 121.164C168.957 121.845 167.824 122.214 166.661 122.217V122.217ZM99.9999 166.667C99.1668 166.667 98.3442 166.48 97.5932 166.119C96.8421 165.759 96.1818 165.234 95.6611 164.583L77.9166 142.406L65.5555 158.889C65.079 159.527 64.4706 160.055 63.7717 160.437C63.0729 160.819 62.2999 161.046 61.5054 161.102C60.711 161.159 59.9137 161.043 59.1679 160.764C58.4221 160.485 57.7452 160.048 57.1833 159.483L51.6277 153.928C51.1119 153.412 50.7028 152.8 50.4236 152.126C50.1445 151.452 50.0008 150.729 50.0008 150C50.0008 149.271 50.1445 148.548 50.4236 147.874C50.7028 147.2 51.1119 146.588 51.6277 146.072C52.6694 145.031 54.0823 144.445 55.5555 144.445C56.285 144.445 57.0073 144.589 57.6812 144.868C58.3551 145.147 58.9675 145.556 59.4833 146.072L60.5111 147.1L73.3333 130C73.8393 129.319 74.4952 128.763 75.2503 128.376C76.0054 127.988 76.8394 127.78 77.6879 127.767C78.5364 127.753 79.3767 127.935 80.1436 128.298C80.9106 128.661 81.5838 129.196 82.1111 129.861L99.9999 152.217L117.883 129.861C118.956 128.522 120.572 127.778 122.311 127.778C124.033 127.806 125.639 128.622 126.667 130L139.494 147.094L140.522 146.067C141.038 145.551 141.65 145.142 142.324 144.863C142.998 144.583 143.72 144.44 144.45 144.44C145.179 144.44 145.902 144.583 146.576 144.863C147.25 145.142 147.862 145.551 148.378 146.067C148.894 146.582 149.303 147.195 149.582 147.869C149.861 148.543 150.005 149.265 150.005 149.994C150.005 150.724 149.861 151.446 149.582 152.12C149.303 152.794 148.894 153.406 148.378 153.922L142.822 159.478C142.265 160.048 141.588 160.488 140.841 160.766C140.094 161.045 139.295 161.155 138.5 161.089C137.706 161.033 136.934 160.807 136.235 160.426C135.537 160.046 134.928 159.52 134.45 158.883L122.083 142.4L104.344 164.578C103.823 165.229 103.162 165.755 102.41 166.117C101.658 166.478 100.834 166.666 99.9999 166.667V166.667Z" fill="#664500"/>
        </g>
        <defs>
            <clipPath id="clip0_236_179">
                <rect width="200" height="200" fill="white"/>
            </clipPath>
        </defs>
    </symbol>
</svg>
