<svg width="0" height="0">
    <symbol id="settings" viewBox="0 0 24 24" fill="none" xmlns="http://www.w3.org/2000/svg">
        <path d="M19 3V7M19 21V11M12 3V15M12 21V19M5 3V5M5 21V9" stroke="currentColor" stroke-width="2" stroke-linecap="round"/>
        <path d="M17 9C17 10.1046 17.8954 11 19 11C20.1046 11 21 10.1046 21 9C21 7.89543 20.1046 7 19 7C17.8954 7 17 7.89543 17 9Z" stroke="currentColor" stroke-width="2" stroke-linecap="round"/>
        <path d="M10 17C10 18.1046 10.8954 19 12 19C13.1046 19 14 18.1046 14 17C14 15.8954 13.1046 15 12 15C10.8954 15 10 15.8954 10 17Z" stroke="currentColor" stroke-width="2" stroke-linecap="round"/>
        <path d="M3 7C3 8.10457 3.89543 9 5 9C6.10457 9 7 8.10457 7 7C7 5.89543 6.10457 5 5 5C3.89543 5 3 5.89543 3 7Z" stroke="currentColor" stroke-width="2" stroke-linecap="round"/>
    </symbol>
    <symbol id="statistic" viewBox="0 0 24 24" fill="none" xmlns="http://www.w3.org/2000/svg">
        <path d="M8 22C8.55 22 9 21.55 9 21V7C9 6.45 8.55 6 8 6C7.45 6 7 6.45 7 7V21C7 21.55 7.45 22 8 22ZM12 22C12.55 22 13 21.55 13 21V3C13 2.45 12.55 2 12 2C11.45 2 11 2.45 11 3V21C11 21.55 11.45 22 12 22ZM4 22C4.55 22 5 21.55 5 21V11C5 10.45 4.55 10 4 10C3.45 10 3 10.45 3 11V21C3 21.55 3.45 22 4 22ZM16 22C16.55 22 17 21.55 17 21V7C17 6.45 16.55 6 16 6C15.45 6 15 6.45 15 7V21C15 21.55 15.45 22 16 22ZM19 5V21C19 21.55 19.45 22 20 22C20.55 22 21 21.55 21 21V5C21 4.45 20.55 4 20 4C19.45 4 19 4.45 19 5Z" fill="currentColor"/>
    </symbol>
    <symbol id="help" viewBox="0 0 24 24" fill="none" xmlns="http://www.w3.org/2000/svg">
        <path d="M11.9999 6C10.957 6.00132 9.9571 6.41622 9.21962 7.1537C8.48214 7.89118 8.06724 8.89104 8.06592 9.934H10.0659C10.0659 8.867 10.9339 8 11.9999 8C13.0659 8 13.9339 8.867 13.9339 9.934C13.9339 10.532 13.4529 10.966 12.7179 11.56C12.4778 11.7481 12.2472 11.948 12.0269 12.159C11.0289 13.156 10.9999 14.215 10.9999 14.333V15H12.9999L12.9989 14.367C12.9999 14.351 13.0319 13.981 13.4399 13.574C13.5899 13.424 13.7789 13.274 13.9749 13.116C14.7539 12.485 15.9329 11.532 15.9329 9.934C15.9321 8.89106 15.5175 7.89104 14.7802 7.15347C14.0428 6.41591 13.0429 6.00106 11.9999 6ZM10.9999 16H12.9999V18H10.9999V16Z" fill="currentColor"/>
        <path d="M12 2C6.486 2 2 6.486 2 12C2 17.514 6.486 22 12 22C17.514 22 22 17.514 22 12C22 6.486 17.514 2 12 2ZM12 20C7.589 20 4 16.411 4 12C4 7.589 7.589 4 12 4C16.411 4 20 7.589 20 12C20 16.411 16.411 20 12 20Z" fill="currentColor"/>
    </symbol>
</svg>
