<svg width="0" height="0">
    <symbol id="settings" viewBox="0 0 24 24" fill="none" xmlns="http://www.w3.org/2000/svg">
        <path d="M19 3V7M19 21V11M12 3V15M12 21V19M5 3V5M5 21V9" stroke="currentColor" stroke-width="2" stroke-linecap="round"/>
        <path d="M17 9C17 10.1046 17.8954 11 19 11C20.1046 11 21 10.1046 21 9C21 7.89543 20.1046 7 19 7C17.8954 7 17 7.89543 17 9Z" stroke="currentColor" stroke-width="2" stroke-linecap="round"/>
        <path d="M10 17C10 18.1046 10.8954 19 12 19C13.1046 19 14 18.1046 14 17C14 15.8954 13.1046 15 12 15C10.8954 15 10 15.8954 10 17Z" stroke="currentColor" stroke-width="2" stroke-linecap="round"/>
        <path d="M3 7C3 8.10457 3.89543 9 5 9C6.10457 9 7 8.10457 7 7C7 5.89543 6.10457 5 5 5C3.89543 5 3 5.89543 3 7Z" stroke="currentColor" stroke-width="2" stroke-linecap="round"/>
    </symbol>
    <symbol id="statistic" viewBox="0 0 24 24" fill="none" xmlns="http://www.w3.org/2000/svg">
        <path d="M8 22C8.55 22 9 21.55 9 21V7C9 6.45 8.55 6 8 6C7.45 6 7 6.45 7 7V21C7 21.55 7.45 22 8 22ZM12 22C12.55 22 13 21.55 13 21V3C13 2.45 12.55 2 12 2C11.45 2 11 2.45 11 3V21C11 21.55 11.45 22 12 22ZM4 22C4.55 22 5 21.55 5 21V11C5 10.45 4.55 10 4 10C3.45 10 3 10.45 3 11V21C3 21.55 3.45 22 4 22ZM16 22C16.55 22 17 21.55 17 21V7C17 6.45 16.55 6 16 6C15.45 6 15 6.45 15 7V21C15 21.55 15.45 22 16 22ZM19 5V21C19 21.55 19.45 22 20 22C20.55 22 21 21.55 21 21V5C21 4.45 20.55 4 20 4C19.45 4 19 4.45 19 5Z" fill="currentColor"/>
    </symbol>
    <symbol id="help" viewBox="0 0 24 24" fill="none" xmlns="http://www.w3.org/2000/svg">
        <path d="M11.9999 6C10.957 6.00132 9.9571 6.41622 9.21962 7.1537C8.48214 7.89118 8.06724 8.89104 8.06592 9.934H10.0659C10.0659 8.867 10.9339 8 11.9999 8C13.0659 8 13.9339 8.867 13.9339 9.934C13.9339 10.532 13.4529 10.966 12.7179 11.56C12.4778 11.7481 12.2472 11.948 12.0269 12.159C11.0289 13.156 10.9999 14.215 10.9999 14.333V15H12.9999L12.9989 14.367C12.9999 14.351 13.0319 13.981 13.4399 13.574C13.5899 13.424 13.7789 13.274 13.9749 13.116C14.7539 12.485 15.9329 11.532 15.9329 9.934C15.9321 8.89106 15.5175 7.89104 14.7802 7.15347C14.0428 6.41591 13.0429 6.00106 11.9999 6ZM10.9999 16H12.9999V18H10.9999V16Z" fill="currentColor"/>
        <path d="M12 2C6.486 2 2 6.486 2 12C2 17.514 6.486 22 12 22C17.514 22 22 17.514 22 12C22 6.486 17.514 2 12 2ZM12 20C7.589 20 4 16.411 4 12C4 7.589 7.589 4 12 4C16.411 4 20 7.589 20 12C20 16.411 16.411 20 12 20Z" fill="currentColor"/>
    </symbol>
    <symbol id="delete" viewBox="0 0 24 24" fill="none" xmlns="http://www.w3.org/2000/svg">
        <path d="M9.82797 5H20C20.5304 5 21.0391 5.21071 21.4142 5.58579C21.7893 5.96086 22 6.46957 22 7V17C22 17.5304 21.7893 18.0391 21.4142 18.4142C21.0391 18.7893 20.5304 19 20 19H9.82797C9.29758 18.9999 8.78896 18.7891 8.41397 18.414L2.70697 12.707C2.5195 12.5195 2.41418 12.2652 2.41418 12C2.41418 11.7348 2.5195 11.4805 2.70697 11.293L8.41397 5.586C8.78896 5.2109 9.29758 5.00011 9.82797 5V5ZM9.82797 17H20V7H9.82797L4.82797 12L9.82797 17ZM16.414 12L17.828 13.414C18.0101 13.6026 18.1109 13.8552 18.1086 14.1174C18.1064 14.3796 18.0012 14.6304 17.8158 14.8158C17.6304 15.0012 17.3796 15.1064 17.1174 15.1087C16.8552 15.111 16.6026 15.0102 16.414 14.828L15 13.414L13.586 14.828C13.4937 14.9235 13.3834 14.9997 13.2614 15.0521C13.1394 15.1045 13.0082 15.1321 12.8754 15.1333C12.7426 15.1344 12.6109 15.1091 12.488 15.0588C12.3651 15.0085 12.2535 14.9343 12.1596 14.8404C12.0657 14.7465 11.9914 14.6349 11.9411 14.512C11.8909 14.3891 11.8656 14.2574 11.8667 14.1246C11.8679 13.9918 11.8955 13.8606 11.9479 13.7386C12.0003 13.6166 12.0765 13.5062 12.172 13.414L13.586 12L12.172 10.586C12.0765 10.4938 12.0003 10.3834 11.9479 10.2614C11.8955 10.1394 11.8679 10.0082 11.8667 9.8754C11.8656 9.74262 11.8909 9.61094 11.9411 9.48805C11.9914 9.36515 12.0657 9.2535 12.1596 9.15961C12.2535 9.06571 12.3651 8.99146 12.488 8.94118C12.6109 8.8909 12.7426 8.8656 12.8754 8.86675C13.0082 8.8679 13.1394 8.89549 13.2614 8.9479C13.3834 9.00031 13.4937 9.07649 13.586 9.172L15 10.586L16.414 9.172C16.5062 9.07649 16.6166 9.00031 16.7386 8.9479C16.8606 8.89549 16.9918 8.8679 17.1246 8.86675C17.2573 8.8656 17.389 8.8909 17.5119 8.94118C17.6348 8.99146 17.7465 9.06571 17.8404 9.15961C17.9343 9.2535 18.0085 9.36515 18.0588 9.48805C18.1091 9.61094 18.1344 9.74262 18.1332 9.8754C18.1321 10.0082 18.1045 10.1394 18.0521 10.2614C17.9997 10.3834 17.9235 10.4938 17.828 10.586L16.414 12V12Z" fill="currentColor"/>
    </symbol>
    <symbol id="enter" viewBox="0 0 24 24" fill="none" xmlns="http://www.w3.org/2000/svg">
        <path d="M4.99998 6C5.2652 6 5.51955 6.10536 5.70709 6.29289C5.89463 6.48043 5.99998 6.73478 5.99998 7V11C5.99998 11.2652 6.10534 11.5196 6.29287 11.7071C6.48041 11.8946 6.73477 12 6.99998 12H16.59L15.29 10.71C15.1017 10.5217 14.9959 10.2663 14.9959 10C14.9959 9.7337 15.1017 9.4783 15.29 9.29C15.4783 9.1017 15.7337 8.99591 16 8.99591C16.2663 8.99591 16.5217 9.1017 16.71 9.29L19.71 12.29C19.801 12.3851 19.8724 12.4972 19.92 12.62C20.02 12.8635 20.02 13.1365 19.92 13.38C19.8724 13.5028 19.801 13.6149 19.71 13.71L16.71 16.71C16.617 16.8037 16.5064 16.8781 16.3846 16.9289C16.2627 16.9797 16.132 17.0058 16 17.0058C15.868 17.0058 15.7373 16.9797 15.6154 16.9289C15.4935 16.8781 15.3829 16.8037 15.29 16.71C15.1963 16.617 15.1219 16.5064 15.0711 16.3846C15.0203 16.2627 14.9942 16.132 14.9942 16C14.9942 15.868 15.0203 15.7373 15.0711 15.6154C15.1219 15.4936 15.1963 15.383 15.29 15.29L16.59 14H6.99998C6.20433 14 5.44127 13.6839 4.87866 13.1213C4.31605 12.5587 3.99998 11.7956 3.99998 11V7C3.99998 6.73478 4.10534 6.48043 4.29287 6.29289C4.48041 6.10536 4.73477 6 4.99998 6Z" fill="currentColor"/>
    </symbol>
    <symbol id="close" viewBox="0 0 24 24" fill="none" xmlns="http://www.w3.org/2000/svg">
        <path d="M4.57504 4.57498C4.85634 4.29378 5.2378 4.1358 5.63554 4.1358C6.03329 4.1358 6.41475 4.29378 6.69604 4.57498L12 9.87898L17.304 4.57498C17.5869 4.30175 17.9658 4.15055 18.3591 4.15397C18.7524 4.15739 19.1287 4.31514 19.4068 4.59326C19.6849 4.87137 19.8426 5.24759 19.8461 5.64088C19.8495 6.03418 19.6983 6.41308 19.425 6.69598L14.121 12L19.425 17.304C19.6983 17.5869 19.8495 17.9658 19.8461 18.3591C19.8426 18.7524 19.6849 19.1286 19.4068 19.4067C19.1287 19.6848 18.7524 19.8426 18.3591 19.846C17.9658 19.8494 17.5869 19.6982 17.304 19.425L12 14.121L6.69604 19.425C6.41314 19.6982 6.03424 19.8494 5.64094 19.846C5.24765 19.8426 4.87143 19.6848 4.59332 19.4067C4.3152 19.1286 4.15745 18.7524 4.15403 18.3591C4.15062 17.9658 4.30181 17.5869 4.57504 17.304L9.87904 12L4.57504 6.69598C4.29384 6.41469 4.13586 6.03323 4.13586 5.63548C4.13586 5.23774 4.29384 4.85627 4.57504 4.57498V4.57498Z" fill="currentColor"/>
    </symbol>
</svg>
